<?xml version="1.0" encoding="UTF-8" standalone="no"?>
<!-- Created with Inkscape (http://www.inkscape.org/) -->

<svg
   xmlns:dc="http://purl.org/dc/elements/1.1/"
   xmlns:cc="http://creativecommons.org/ns#"
   xmlns:rdf="http://www.w3.org/1999/02/22-rdf-syntax-ns#"
   xmlns:svg="http://www.w3.org/2000/svg"
   xmlns="http://www.w3.org/2000/svg"
   xmlns:sodipodi="http://sodipodi.sourceforge.net/DTD/sodipodi-0.dtd"
   xmlns:inkscape="http://www.inkscape.org/namespaces/inkscape"
   width="210mm"
   height="297mm"
   viewBox="0 0 210 297"
   version="1.1"
   id="svg4570"
   inkscape:version="0.92.1 r15371"
   sodipodi:docname="figure4.svg">
  <defs
     id="defs4564">
    <marker
       inkscape:isstock="true"
       style="overflow:visible;"
       id="marker12430"
       refX="0.0"
       refY="0.0"
       orient="auto"
       inkscape:stockid="Arrow2Mend">
      <path
         transform="scale(0.6) rotate(180) translate(0,0)"
         d="M 8.7185878,4.0337352 L -2.2072895,0.016013256 L 8.7185884,-4.0017078 C 6.9730900,-1.6296469 6.9831476,1.6157441 8.7185878,4.0337352 z "
         style="fill-rule:evenodd;stroke-width:0.625;stroke-linejoin:round;stroke:#000000;stroke-opacity:1;fill:#000000;fill-opacity:1"
         id="path12428" />
    </marker>
    <marker
       inkscape:isstock="true"
       style="overflow:visible;"
       id="marker12334"
       refX="0.0"
       refY="0.0"
       orient="auto"
       inkscape:stockid="Arrow2Mend">
      <path
         transform="scale(0.6) rotate(180) translate(0,0)"
         d="M 8.7185878,4.0337352 L -2.2072895,0.016013256 L 8.7185884,-4.0017078 C 6.9730900,-1.6296469 6.9831476,1.6157441 8.7185878,4.0337352 z "
         style="fill-rule:evenodd;stroke-width:0.625;stroke-linejoin:round;stroke:#000000;stroke-opacity:1;fill:#000000;fill-opacity:1"
         id="path12332" />
    </marker>
    <marker
       inkscape:stockid="Arrow2Mend"
       orient="auto"
       refY="0.0"
       refX="0.0"
       id="marker7198"
       style="overflow:visible;"
       inkscape:isstock="true"
       inkscape:collect="always">
      <path
         id="path7196"
         style="fill-rule:evenodd;stroke-width:0.625;stroke-linejoin:round;stroke:#000000;stroke-opacity:1;fill:#000000;fill-opacity:1"
         d="M 8.7185878,4.0337352 L -2.2072895,0.016013256 L 8.7185884,-4.0017078 C 6.9730900,-1.6296469 6.9831476,1.6157441 8.7185878,4.0337352 z "
         transform="scale(0.6) rotate(180) translate(0,0)" />
    </marker>
    <marker
       inkscape:isstock="true"
       style="overflow:visible;"
       id="marker7146"
       refX="0.0"
       refY="0.0"
       orient="auto"
       inkscape:stockid="Arrow2Mend">
      <path
         transform="scale(0.6) rotate(180) translate(0,0)"
         d="M 8.7185878,4.0337352 L -2.2072895,0.016013256 L 8.7185884,-4.0017078 C 6.9730900,-1.6296469 6.9831476,1.6157441 8.7185878,4.0337352 z "
         style="fill-rule:evenodd;stroke-width:0.625;stroke-linejoin:round;stroke:#000000;stroke-opacity:1;fill:#000000;fill-opacity:1"
         id="path7144" />
    </marker>
    <marker
       inkscape:isstock="true"
       style="overflow:visible"
       id="marker7082"
       refX="0.0"
       refY="0.0"
       orient="auto"
       inkscape:stockid="Arrow2Mstart">
      <path
         transform="scale(0.6) translate(0,0)"
         d="M 8.7185878,4.0337352 L -2.2072895,0.016013256 L 8.7185884,-4.0017078 C 6.9730900,-1.6296469 6.9831476,1.6157441 8.7185878,4.0337352 z "
         style="fill-rule:evenodd;stroke-width:0.625;stroke-linejoin:round;stroke:#000000;stroke-opacity:1;fill:#000000;fill-opacity:1"
         id="path7080" />
    </marker>
    <marker
       inkscape:isstock="true"
       style="overflow:visible;"
       id="marker7024"
       refX="0.0"
       refY="0.0"
       orient="auto"
       inkscape:stockid="Arrow2Mend">
      <path
         transform="scale(0.6) rotate(180) translate(0,0)"
         d="M 8.7185878,4.0337352 L -2.2072895,0.016013256 L 8.7185884,-4.0017078 C 6.9730900,-1.6296469 6.9831476,1.6157441 8.7185878,4.0337352 z "
         style="fill-rule:evenodd;stroke-width:0.625;stroke-linejoin:round;stroke:#000000;stroke-opacity:1;fill:#000000;fill-opacity:1"
         id="path7022" />
    </marker>
    <marker
       inkscape:stockid="Arrow2Mend"
       orient="auto"
       refY="0.0"
       refX="0.0"
       id="Arrow2Mend"
       style="overflow:visible;"
       inkscape:isstock="true"
       inkscape:collect="always">
      <path
         id="path5967"
         style="fill-rule:evenodd;stroke-width:0.625;stroke-linejoin:round;stroke:#000000;stroke-opacity:1;fill:#000000;fill-opacity:1"
         d="M 8.7185878,4.0337352 L -2.2072895,0.016013256 L 8.7185884,-4.0017078 C 6.9730900,-1.6296469 6.9831476,1.6157441 8.7185878,4.0337352 z "
         transform="scale(0.6) rotate(180) translate(0,0)" />
    </marker>
    <marker
       inkscape:stockid="Arrow2Mstart"
       orient="auto"
       refY="0.0"
       refX="0.0"
       id="Arrow2Mstart"
       style="overflow:visible"
       inkscape:isstock="true"
       inkscape:collect="always">
      <path
         id="path5964"
         style="fill-rule:evenodd;stroke-width:0.625;stroke-linejoin:round;stroke:#000000;stroke-opacity:1;fill:#000000;fill-opacity:1"
         d="M 8.7185878,4.0337352 L -2.2072895,0.016013256 L 8.7185884,-4.0017078 C 6.9730900,-1.6296469 6.9831476,1.6157441 8.7185878,4.0337352 z "
         transform="scale(0.6) translate(0,0)" />
    </marker>
  </defs>
  <sodipodi:namedview
     id="base"
     pagecolor="#ffffff"
     bordercolor="#666666"
     borderopacity="1.0"
     inkscape:pageopacity="0.0"
     inkscape:pageshadow="2"
     inkscape:zoom="1.4"
     inkscape:cx="454.157"
     inkscape:cy="149.29731"
     inkscape:document-units="mm"
     inkscape:current-layer="layer1"
     showgrid="false"
     inkscape:window-width="2560"
     inkscape:window-height="1377"
     inkscape:window-x="-8"
     inkscape:window-y="-8"
     inkscape:window-maximized="1" />
  <metadata
     id="metadata4567">
    <rdf:RDF>
      <cc:Work
         rdf:about="">
        <dc:format>image/svg+xml</dc:format>
        <dc:type
           rdf:resource="http://purl.org/dc/dcmitype/StillImage" />
        <dc:title></dc:title>
      </cc:Work>
    </rdf:RDF>
  </metadata>
  <g
     inkscape:label="Layer 1"
     inkscape:groupmode="layer"
     id="layer1">
    <g
       id="page1"
       transform="matrix(1.5066666,0,0,1.5066666,-84.995987,-87.810707)"
       style="">
      <path
         inkscape:connector-curvature="0"
         d="m 57.049056,64.481844 h 0.291009 c 0.0601,0 0.09173,0 0.09173,-0.05694 0,-0.03479 -0.01898,-0.03479 -0.08224,-0.03479 h -0.278356 l 0.117036,-0.461818 c 0.01265,-0.04428 0.01265,-0.05061 0.01265,-0.07275 0,-0.05061 -0.04112,-0.07908 -0.08224,-0.07908 -0.02531,0 -0.09806,0.0095 -0.123362,0.110709 l -0.123363,0.502939 h -0.297335 c -0.06326,0 -0.09173,0 -0.09173,0.0601 0,0.03163 0.02214,0.03163 0.08224,0.03163 h 0.281519 l -0.208767,0.835069 c -0.0253,0.11071 -0.03479,0.142341 -0.03479,0.183462 0,0.148668 0.104384,0.284683 0.28152,0.284683 0.319477,0 0.490286,-0.461819 0.490286,-0.483961 0,-0.01898 -0.01265,-0.02847 -0.03163,-0.02847 -0.0063,0 -0.01898,0 -0.02531,0.01265 -0.0032,0.0032 -0.0063,0.0063 -0.02847,0.05694 -0.06643,0.158157 -0.211931,0.379577 -0.395393,0.379577 -0.09489,0 -0.10122,-0.07908 -0.10122,-0.148668 0,-0.0032 0,-0.06326 0.0095,-0.10122 z"
         id="use4494"
         style="stroke-width:0.26458332" />
      <path
         inkscape:connector-curvature="0"
         d="m 61.302577,66.203405 c 0,-0.05694 -0.0042,-0.05904 -0.06115,-0.05904 -0.08646,0.08435 -0.198223,0.134961 -0.398555,0.134961 v 0.06959 c 0.05694,0 0.170809,0 0.293117,-0.05694 v 1.081793 c 0,0.07802 -0.0063,0.103329 -0.206658,0.103329 h -0.07381 v 0.06959 c 0.08646,-0.0063 0.267812,-0.0063 0.362707,-0.0063 0.09489,0 0.278356,0 0.364815,0.0063 v -0.06959 h -0.07381 c -0.200332,0 -0.206658,-0.02531 -0.206658,-0.103329 z"
         id="use4496"
         style="stroke-width:0.26458332" />
      <path
         inkscape:connector-curvature="0"
         d="m 66.008533,64.481844 h 0.291008 c 0.0601,0 0.09173,0 0.09173,-0.05694 0,-0.03479 -0.01898,-0.03479 -0.08224,-0.03479 h -0.278357 l 0.117037,-0.461818 c 0.01265,-0.04428 0.01265,-0.05061 0.01265,-0.07275 0,-0.05061 -0.04112,-0.07908 -0.08224,-0.07908 -0.0253,0 -0.09806,0.0095 -0.123362,0.110709 l -0.123362,0.502939 h -0.297335 c -0.06326,0 -0.09173,0 -0.09173,0.0601 0,0.03163 0.02214,0.03163 0.08224,0.03163 h 0.28152 l -0.208767,0.835069 c -0.02531,0.11071 -0.0348,0.142341 -0.0348,0.183462 0,0.148668 0.104384,0.284683 0.281519,0.284683 0.319477,0 0.490287,-0.461819 0.490287,-0.483961 0,-0.01898 -0.01265,-0.02847 -0.03163,-0.02847 -0.0063,0 -0.01898,0 -0.02531,0.01265 -0.0032,0.0032 -0.0063,0.0063 -0.02847,0.05694 -0.06643,0.158157 -0.21193,0.379577 -0.395392,0.379577 -0.09489,0 -0.101221,-0.07908 -0.101221,-0.148668 0,-0.0032 0,-0.06326 0.0095,-0.10122 z"
         id="use4498"
         style="stroke-width:0.26458332" />
      <path
         inkscape:connector-curvature="0"
         d="m 70.194569,67.116497 c 0.03374,-0.03163 0.122308,-0.10122 0.156048,-0.130743 0.130744,-0.120199 0.25516,-0.23618 0.25516,-0.428078 0,-0.250942 -0.210876,-0.413316 -0.474471,-0.413316 -0.25305,0 -0.419642,0.191897 -0.419642,0.379576 0,0.103329 0.08224,0.118091 0.111764,0.118091 0.04428,0 0.109655,-0.03163 0.109655,-0.111764 0,-0.109656 -0.105438,-0.109656 -0.130743,-0.109656 0.06115,-0.153939 0.202441,-0.206658 0.30577,-0.206658 0.196115,0 0.297335,0.166592 0.297335,0.343727 0,0.219311 -0.153939,0.379577 -0.402773,0.634737 l -0.265703,0.274138 c -0.02531,0.0232 -0.02531,0.02741 -0.02531,0.08013 h 0.832959 l 0.06115,-0.377468 h -0.06537 c -0.0063,0.04218 -0.0232,0.147614 -0.0485,0.18768 -0.01265,0.01687 -0.172918,0.01687 -0.206658,0.01687 h -0.375359 z"
         id="use4500"
         style="stroke-width:0.26458332" />
      <path
         inkscape:connector-curvature="0"
         d="m 74.968005,64.481844 h 0.291009 c 0.0601,0 0.09173,0 0.09173,-0.05694 0,-0.03479 -0.01898,-0.03479 -0.08224,-0.03479 h -0.278356 l 0.117036,-0.461818 c 0.01265,-0.04428 0.01265,-0.05061 0.01265,-0.07275 0,-0.05061 -0.04112,-0.07908 -0.08224,-0.07908 -0.02531,0 -0.09806,0.0095 -0.123362,0.110709 l -0.123363,0.502939 h -0.297334 c -0.06326,0 -0.09173,0 -0.09173,0.0601 0,0.03163 0.02214,0.03163 0.08224,0.03163 h 0.281519 l -0.208767,0.835069 c -0.02531,0.11071 -0.03479,0.142341 -0.03479,0.183462 0,0.148668 0.104383,0.284683 0.281519,0.284683 0.319477,0 0.490286,-0.461819 0.490286,-0.483961 0,-0.01898 -0.01265,-0.02847 -0.03163,-0.02847 -0.0063,0 -0.01898,0 -0.0253,0.01265 -0.0032,0.0032 -0.0063,0.0063 -0.02847,0.05694 -0.06643,0.158157 -0.211931,0.379577 -0.395393,0.379577 -0.09489,0 -0.10122,-0.07908 -0.10122,-0.148668 0,-0.0032 0,-0.06326 0.0095,-0.10122 z"
         id="use4502"
         style="stroke-width:0.26458332" />
      <path
         inkscape:connector-curvature="0"
         d="m 79.092895,66.842359 c 0.166592,0 0.27203,0.122308 0.27203,0.343728 0,0.263594 -0.149721,0.341618 -0.261486,0.341618 -0.115981,0 -0.274138,-0.04218 -0.347945,-0.153939 0.07591,0 0.128634,-0.0485 0.128634,-0.11809 0,-0.06748 -0.0485,-0.115982 -0.115981,-0.115982 -0.05694,0 -0.115982,0.03585 -0.115982,0.120199 0,0.200332 0.215093,0.331075 0.455492,0.331075 0.280465,0 0.476579,-0.194006 0.476579,-0.404881 0,-0.175027 -0.139178,-0.335293 -0.354271,-0.381686 0.166592,-0.05904 0.291009,-0.202441 0.291009,-0.371141 0,-0.168701 -0.189789,-0.2889 -0.4091,-0.2889 -0.225637,0 -0.396446,0.122308 -0.396446,0.282573 0,0.07802 0.05272,0.111764 0.107546,0.111764 0.06537,0 0.107547,-0.04639 0.107547,-0.107546 0,-0.07802 -0.06748,-0.107547 -0.113873,-0.109656 0.08857,-0.115981 0.250942,-0.122308 0.2889,-0.122308 0.05483,0 0.215093,0.01687 0.215093,0.234073 0,0.147613 -0.06115,0.23618 -0.09068,0.269921 -0.06326,0.06537 -0.111764,0.06959 -0.240399,0.07802 -0.04007,0.0021 -0.05694,0.0042 -0.05694,0.03163 0,0.02952 0.01898,0.02952 0.05483,0.02952 z"
         id="use4504"
         style="stroke-width:0.26458332" />
      <path
         inkscape:connector-curvature="0"
         d="m 83.927485,64.481844 h 0.291009 c 0.0601,0 0.09173,0 0.09173,-0.05694 0,-0.03479 -0.01898,-0.03479 -0.08224,-0.03479 h -0.278357 l 0.117036,-0.461818 c 0.01265,-0.04428 0.01265,-0.05061 0.01265,-0.07275 0,-0.05061 -0.04112,-0.07908 -0.08224,-0.07908 -0.02531,0 -0.09806,0.0095 -0.123362,0.110709 l -0.123362,0.502939 h -0.297335 c -0.06326,0 -0.09173,0 -0.09173,0.0601 0,0.03163 0.02214,0.03163 0.08224,0.03163 h 0.28152 l -0.208768,0.835069 c -0.02531,0.11071 -0.03479,0.142341 -0.03479,0.183462 0,0.148668 0.104384,0.284683 0.281519,0.284683 0.319477,0 0.490287,-0.461819 0.490287,-0.483961 0,-0.01898 -0.01265,-0.02847 -0.03163,-0.02847 -0.0063,0 -0.01898,0 -0.0253,0.01265 -0.0032,0.0032 -0.0063,0.0063 -0.02847,0.05694 -0.06643,0.158157 -0.21193,0.379577 -0.395392,0.379577 -0.09489,0 -0.101221,-0.07908 -0.101221,-0.148668 0,-0.0032 0,-0.06326 0.0095,-0.10122 z"
         id="use4506"
         style="stroke-width:0.26458332" />
      <path
         inkscape:connector-curvature="0"
         d="m 88.349703,66.182317 c 0,-0.04218 0,-0.05904 -0.04428,-0.05904 -0.02741,0 -0.02952,0.0021 -0.05061,0.03163 l -0.672694,0.976355 v 0.06959 h 0.59467 v 0.175027 c 0,0.07802 -0.0063,0.10122 -0.168701,0.10122 h -0.0485 v 0.06959 c 0.179244,-0.0063 0.183462,-0.0063 0.303661,-0.0063 0.1202,0 0.124417,0 0.303661,0.0063 v -0.06959 h -0.0485 c -0.162375,0 -0.168701,-0.0232 -0.168701,-0.10122 v -0.175027 h 0.223529 v -0.06959 h -0.223529 z m -0.158157,0.17081 v 0.778132 h -0.535625 z"
         id="use4508"
         style="stroke-width:0.26458332" />
      <path
         inkscape:connector-curvature="0"
         d="m 92.387182,66.155144 c -0.02214,0.09489 -0.03479,0.120199 -0.164483,0.120199 -0.03796,0 -0.06959,0 -0.06959,0.0601 0,0.0063 0.0032,0.03163 0.03796,0.03163 0.04112,0 0.0854,-0.0063 0.126525,-0.0063 h 0.136015 c 0.06643,0 0.227746,0.0063 0.294172,0.0063 0.01898,0 0.05694,0 0.05694,-0.05694 0,-0.03479 -0.02214,-0.03479 -0.07591,-0.03479 -0.145504,0 -0.154994,-0.02214 -0.154994,-0.04745 0,-0.03796 0.142342,-0.582017 0.161321,-0.654769 0.03479,0.08857 0.120199,0.21193 0.284682,0.21193 0.357434,0 0.743337,-0.464981 0.743337,-0.929963 0,-0.291008 -0.164483,-0.496612 -0.401718,-0.496612 -0.202441,0 -0.373251,0.196114 -0.408045,0.240398 -0.02531,-0.158157 -0.148668,-0.240398 -0.275193,-0.240398 -0.09173,0 -0.164483,0.04428 -0.224583,0.164483 -0.05694,0.113873 -0.10122,0.306824 -0.10122,0.319477 0,0.01265 0.01265,0.02847 0.03479,0.02847 0.02531,0 0.02847,-0.0032 0.04745,-0.07591 0.04745,-0.186626 0.107547,-0.373251 0.234073,-0.373251 0.07275,0 0.09806,0.05061 0.09806,0.145505 0,0.07591 -0.0095,0.107547 -0.02214,0.164483 z m 0.547223,-1.388617 c 0.02214,-0.08857 0.11071,-0.180299 0.16132,-0.224583 0.0348,-0.03163 0.139178,-0.1202 0.259378,-0.1202 0.139178,0 0.20244,0.139179 0.20244,0.303662 0,0.15183 -0.08857,0.509265 -0.167646,0.673748 -0.07908,0.17081 -0.224583,0.32264 -0.370087,0.32264 -0.215094,0 -0.249888,-0.27203 -0.249888,-0.284682 0,-0.0095 0.0063,-0.0348 0.0095,-0.05061 z"
         id="use4510"
         style="stroke-width:0.26458332" />
      <path
         inkscape:connector-curvature="0"
         d="m 98.788455,66.203405 c 0,-0.05694 -0.0042,-0.05904 -0.06115,-0.05904 -0.08646,0.08435 -0.198224,0.134961 -0.398555,0.134961 v 0.06959 c 0.05694,0 0.170809,0 0.293117,-0.05694 v 1.081793 c 0,0.07802 -0.0063,0.103329 -0.206658,0.103329 h -0.07381 v 0.06959 c 0.08646,-0.0063 0.267812,-0.0063 0.362707,-0.0063 0.09489,0 0.278356,0 0.364815,0.0063 v -0.06959 h -0.07381 c -0.200332,0 -0.206658,-0.02531 -0.206658,-0.103329 z"
         id="use4512"
         style="stroke-width:0.26458332" />
      <path
         inkscape:connector-curvature="0"
         d="m 102.99463,66.155144 c -0.0221,0.09489 -0.0348,0.120199 -0.16448,0.120199 -0.038,0 -0.0696,0 -0.0696,0.0601 0,0.0063 0.003,0.03163 0.038,0.03163 0.0411,0 0.0854,-0.0063 0.12653,-0.0063 h 0.13601 c 0.0664,0 0.22775,0.0063 0.29417,0.0063 0.019,0 0.0569,0 0.0569,-0.05694 0,-0.03479 -0.0221,-0.03479 -0.0759,-0.03479 -0.1455,0 -0.15499,-0.02214 -0.15499,-0.04745 0,-0.03796 0.14234,-0.582017 0.16132,-0.654769 0.0348,0.08857 0.1202,0.21193 0.28468,0.21193 0.35744,0 0.74334,-0.464981 0.74334,-0.929963 0,-0.291008 -0.16448,-0.496612 -0.40172,-0.496612 -0.20244,0 -0.37325,0.196114 -0.40804,0.240398 -0.0253,-0.158157 -0.14867,-0.240398 -0.2752,-0.240398 -0.0917,0 -0.16448,0.04428 -0.22458,0.164483 -0.0569,0.113873 -0.10122,0.306824 -0.10122,0.319477 0,0.01265 0.0126,0.02847 0.0348,0.02847 0.0253,0 0.0285,-0.0032 0.0474,-0.07591 0.0474,-0.186626 0.10755,-0.373251 0.23407,-0.373251 0.0728,0 0.0981,0.05061 0.0981,0.145505 0,0.07591 -0.009,0.107547 -0.0221,0.164483 z m 0.54723,-1.388617 c 0.0221,-0.08857 0.11071,-0.180299 0.16132,-0.224583 0.0348,-0.03163 0.13918,-0.1202 0.25937,-0.1202 0.13918,0 0.20245,0.139179 0.20245,0.303662 0,0.15183 -0.0886,0.509265 -0.16765,0.673748 -0.0791,0.17081 -0.22458,0.32264 -0.37009,0.32264 -0.21509,0 -0.24989,-0.27203 -0.24989,-0.284682 0,-0.0095 0.006,-0.0348 0.009,-0.05061 z"
         id="use4514"
         style="stroke-width:0.26458332" />
      <path
         inkscape:connector-curvature="0"
         d="m 109.32843,67.116497 c 0.0337,-0.03163 0.12231,-0.10122 0.15605,-0.130743 0.13075,-0.120199 0.25516,-0.23618 0.25516,-0.428078 0,-0.250942 -0.21087,-0.413316 -0.47447,-0.413316 -0.25305,0 -0.41964,0.191897 -0.41964,0.379576 0,0.103329 0.0822,0.118091 0.11176,0.118091 0.0443,0 0.10966,-0.03163 0.10966,-0.111764 0,-0.109656 -0.10544,-0.109656 -0.13074,-0.109656 0.0611,-0.153939 0.20244,-0.206658 0.30577,-0.206658 0.19611,0 0.29733,0.166592 0.29733,0.343727 0,0.219311 -0.15394,0.379577 -0.40277,0.634737 l -0.26571,0.274138 c -0.0253,0.0232 -0.0253,0.02741 -0.0253,0.08013 h 0.83296 l 0.0611,-0.377468 h -0.0654 c -0.006,0.04218 -0.0232,0.147614 -0.0485,0.18768 -0.0127,0.01687 -0.17292,0.01687 -0.20666,0.01687 h -0.37536 z"
         id="use4516"
         style="stroke-width:0.26458332" />
      <path
         inkscape:connector-curvature="0"
         d="m 113.60209,66.155144 c -0.0221,0.09489 -0.0348,0.120199 -0.16448,0.120199 -0.038,0 -0.0696,0 -0.0696,0.0601 0,0.0063 0.003,0.03163 0.038,0.03163 0.0411,0 0.0854,-0.0063 0.12653,-0.0063 h 0.13601 c 0.0664,0 0.22775,0.0063 0.29417,0.0063 0.019,0 0.0569,0 0.0569,-0.05694 0,-0.03479 -0.0221,-0.03479 -0.0759,-0.03479 -0.1455,0 -0.15499,-0.02214 -0.15499,-0.04745 0,-0.03796 0.14234,-0.582017 0.16132,-0.654769 0.0348,0.08857 0.1202,0.21193 0.28468,0.21193 0.35744,0 0.74334,-0.464981 0.74334,-0.929963 0,-0.291008 -0.16448,-0.496612 -0.40172,-0.496612 -0.20244,0 -0.37325,0.196114 -0.40804,0.240398 -0.0253,-0.158157 -0.14867,-0.240398 -0.2752,-0.240398 -0.0917,0 -0.16448,0.04428 -0.22458,0.164483 -0.0569,0.113873 -0.10122,0.306824 -0.10122,0.319477 0,0.01265 0.0126,0.02847 0.0348,0.02847 0.0253,0 0.0285,-0.0032 0.0474,-0.07591 0.0474,-0.186626 0.10755,-0.373251 0.23407,-0.373251 0.0728,0 0.0981,0.05061 0.0981,0.145505 0,0.07591 -0.009,0.107547 -0.0221,0.164483 z m 0.54723,-1.388617 c 0.0221,-0.08857 0.11071,-0.180299 0.16132,-0.224583 0.0348,-0.03163 0.13918,-0.1202 0.25938,-0.1202 0.13917,0 0.20244,0.139179 0.20244,0.303662 0,0.15183 -0.0886,0.509265 -0.16765,0.673748 -0.0791,0.17081 -0.22458,0.32264 -0.37009,0.32264 -0.21509,0 -0.24989,-0.27203 -0.24989,-0.284682 0,-0.0095 0.006,-0.0348 0.009,-0.05061 z"
         id="use4518"
         style="stroke-width:0.26458332" />
      <path
         inkscape:connector-curvature="0"
         d="m 119.87474,66.842359 c 0.16659,0 0.27203,0.122308 0.27203,0.343728 0,0.263594 -0.14972,0.341618 -0.26149,0.341618 -0.11598,0 -0.27413,-0.04218 -0.34794,-0.153939 0.0759,0 0.12863,-0.0485 0.12863,-0.11809 0,-0.06748 -0.0485,-0.115982 -0.11598,-0.115982 -0.0569,0 -0.11598,0.03585 -0.11598,0.120199 0,0.200332 0.21509,0.331075 0.45549,0.331075 0.28047,0 0.47658,-0.194006 0.47658,-0.404881 0,-0.175027 -0.13918,-0.335293 -0.35427,-0.381686 0.16659,-0.05904 0.29101,-0.202441 0.29101,-0.371141 0,-0.168701 -0.18979,-0.2889 -0.4091,-0.2889 -0.22564,0 -0.39645,0.122308 -0.39645,0.282573 0,0.07802 0.0527,0.111764 0.10755,0.111764 0.0654,0 0.10755,-0.04639 0.10755,-0.107546 0,-0.07802 -0.0675,-0.107547 -0.11388,-0.109656 0.0886,-0.115981 0.25095,-0.122308 0.2889,-0.122308 0.0548,0 0.2151,0.01687 0.2151,0.234073 0,0.147613 -0.0612,0.23618 -0.0907,0.269921 -0.0633,0.06537 -0.11176,0.06959 -0.2404,0.07802 -0.0401,0.0021 -0.0569,0.0042 -0.0569,0.03163 0,0.02952 0.019,0.02952 0.0548,0.02952 z"
         id="use4520"
         style="stroke-width:0.26458332" />
      <path
         inkscape:connector-curvature="0"
         d="m 124.20955,66.155144 c -0.0221,0.09489 -0.0348,0.120199 -0.16448,0.120199 -0.038,0 -0.0696,0 -0.0696,0.0601 0,0.0063 0.003,0.03163 0.038,0.03163 0.0411,0 0.0854,-0.0063 0.12653,-0.0063 h 0.13601 c 0.0664,0 0.22775,0.0063 0.29417,0.0063 0.019,0 0.0569,0 0.0569,-0.05694 0,-0.03479 -0.0221,-0.03479 -0.0759,-0.03479 -0.1455,0 -0.15499,-0.02214 -0.15499,-0.04745 0,-0.03796 0.14234,-0.582017 0.16132,-0.654769 0.0348,0.08857 0.1202,0.21193 0.28468,0.21193 0.35744,0 0.74334,-0.464981 0.74334,-0.929963 0,-0.291008 -0.16448,-0.496612 -0.40172,-0.496612 -0.20244,0 -0.37325,0.196114 -0.40804,0.240398 -0.0253,-0.158157 -0.14867,-0.240398 -0.2752,-0.240398 -0.0917,0 -0.16448,0.04428 -0.22458,0.164483 -0.0569,0.113873 -0.10122,0.306824 -0.10122,0.319477 0,0.01265 0.0126,0.02847 0.0348,0.02847 0.0253,0 0.0285,-0.0032 0.0475,-0.07591 0.0474,-0.186626 0.10755,-0.373251 0.23407,-0.373251 0.0728,0 0.0981,0.05061 0.0981,0.145505 0,0.07591 -0.009,0.107547 -0.0221,0.164483 z m 0.54723,-1.388617 c 0.0221,-0.08857 0.11071,-0.180299 0.16132,-0.224583 0.0348,-0.03163 0.13918,-0.1202 0.25938,-0.1202 0.13917,0 0.20244,0.139179 0.20244,0.303662 0,0.15183 -0.0886,0.509265 -0.16765,0.673748 -0.0791,0.17081 -0.22458,0.32264 -0.37009,0.32264 -0.21509,0 -0.24989,-0.27203 -0.24989,-0.284682 0,-0.0095 0.006,-0.0348 0.009,-0.05061 z"
         id="use4522"
         style="stroke-width:0.26458332" />
      <path
         inkscape:connector-curvature="0"
         d="m 130.77954,66.182317 c 0,-0.04218 0,-0.05904 -0.0443,-0.05904 -0.0274,0 -0.0295,0.0021 -0.0506,0.03163 l -0.67269,0.976355 v 0.06959 h 0.59467 v 0.175027 c 0,0.07802 -0.006,0.10122 -0.1687,0.10122 h -0.0485 v 0.06959 c 0.17924,-0.0063 0.18346,-0.0063 0.30366,-0.0063 0.1202,0 0.12441,0 0.30366,0.0063 v -0.06959 h -0.0485 c -0.16238,0 -0.1687,-0.0232 -0.1687,-0.10122 v -0.175027 h 0.22352 v -0.06959 h -0.22352 z m -0.15816,0.17081 v 0.778132 h -0.53563 z"
         id="use4524"
         style="stroke-width:0.26458332" />
      <path
         inkscape:connector-curvature="0"
         d="m 134.81701,66.155144 c -0.0221,0.09489 -0.0348,0.120199 -0.16448,0.120199 -0.038,0 -0.0696,0 -0.0696,0.0601 0,0.0063 0.003,0.03163 0.038,0.03163 0.0411,0 0.0854,-0.0063 0.12653,-0.0063 h 0.13601 c 0.0664,0 0.22775,0.0063 0.29417,0.0063 0.019,0 0.0569,0 0.0569,-0.05694 0,-0.03479 -0.0221,-0.03479 -0.0759,-0.03479 -0.1455,0 -0.15499,-0.02214 -0.15499,-0.04745 0,-0.03796 0.14234,-0.582017 0.16132,-0.654769 0.0348,0.08857 0.1202,0.21193 0.28468,0.21193 0.35744,0 0.74334,-0.464981 0.74334,-0.929963 0,-0.291008 -0.16448,-0.496612 -0.40172,-0.496612 -0.20244,0 -0.37325,0.196114 -0.40804,0.240398 -0.0253,-0.158157 -0.14867,-0.240398 -0.2752,-0.240398 -0.0917,0 -0.16448,0.04428 -0.22458,0.164483 -0.0569,0.113873 -0.10122,0.306824 -0.10122,0.319477 0,0.01265 0.0127,0.02847 0.0348,0.02847 0.0253,0 0.0285,-0.0032 0.0474,-0.07591 0.0474,-0.186626 0.10755,-0.373251 0.23407,-0.373251 0.0728,0 0.0981,0.05061 0.0981,0.145505 0,0.07591 -0.009,0.107547 -0.0221,0.164483 z m 0.54723,-1.388617 c 0.0221,-0.08857 0.11071,-0.180299 0.16132,-0.224583 0.0348,-0.03163 0.13918,-0.1202 0.25938,-0.1202 0.13917,0 0.20244,0.139179 0.20244,0.303662 0,0.15183 -0.0886,0.509265 -0.16765,0.673748 -0.0791,0.17081 -0.22458,0.32264 -0.37009,0.32264 -0.21509,0 -0.24989,-0.27203 -0.24989,-0.284682 0,-0.0095 0.006,-0.0348 0.009,-0.05061 z"
         id="use4526"
         style="stroke-width:0.26458332" />
      <path
         inkscape:connector-curvature="0"
         d="m 140.85136,66.361562 c 0.0274,0.0084 0.11177,0.02952 0.20034,0.02952 0.26359,0 0.42386,-0.185571 0.42386,-0.217203 0,-0.0232 -0.0148,-0.02952 -0.0253,-0.02952 -0.004,0 -0.008,0 -0.0274,0.01054 -0.0822,0.03163 -0.17925,0.05694 -0.29312,0.05694 -0.12442,0 -0.22775,-0.03163 -0.29312,-0.05694 -0.0211,-0.01054 -0.0253,-0.01054 -0.0274,-0.01054 -0.0274,0 -0.0274,0.0232 -0.0274,0.06115 v 0.617867 c 0,0.03796 0,0.06326 0.0337,0.06326 0.0169,0 0.0232,-0.0084 0.0337,-0.02531 0.0253,-0.03163 0.10544,-0.139179 0.28469,-0.139179 0.11809,0 0.17502,0.097 0.194,0.13707 0.0358,0.07591 0.0401,0.172918 0.0401,0.255159 0,0.07802 -0.002,0.191897 -0.0611,0.284683 -0.0401,0.06326 -0.12442,0.128634 -0.23619,0.128634 -0.13706,0 -0.27203,-0.08646 -0.32053,-0.223528 0.006,0.0021 0.019,0.0021 0.0211,0.0021 0.059,0 0.10544,-0.03796 0.10544,-0.103329 0,-0.07802 -0.0612,-0.105438 -0.10333,-0.105438 -0.038,0 -0.10544,0.02109 -0.10544,0.111764 0,0.189788 0.16448,0.381685 0.40699,0.381685 0.2636,0 0.48713,-0.20455 0.48713,-0.466035 0,-0.244616 -0.17714,-0.461819 -0.42597,-0.461819 -0.10544,0 -0.20455,0.03374 -0.28469,0.105438 z"
         id="use4528"
         style="stroke-width:0.26458332" />
    </g>
    <circle
       style="fill:#ffffff;fill-opacity:1;stroke:#000000;stroke-width:1;stroke-miterlimit:10;stroke-dasharray:none;stroke-opacity:1"
       id="path6386"
       cx="96.383926"
       cy="218.75893"
       r="15.308036" />
    <rect
       style="fill:#ffffff;fill-opacity:1;stroke:#000000;stroke-width:1;stroke-miterlimit:10;stroke-dasharray:none;stroke-opacity:1"
       id="rect6388"
       width="99.758347"
       height="0.06681738"
       x="47.841244"
       y="234.7262" />
    <rect
       style="fill:#ffffff;fill-opacity:1;stroke:#000000;stroke-width:0.75934374;stroke-miterlimit:10;stroke-dasharray:none;stroke-opacity:1"
       id="rect6388-1"
       width="57.526226"
       height="0.066811256"
       x="-233.95459"
       y="47.426147"
       transform="matrix(-0.00152035,-0.99999884,0.99984406,0.01765937,0,0)" />
    <rect
       style="fill:#ffffff;fill-opacity:1;stroke:#000000;stroke-width:0.352247;stroke-miterlimit:10;stroke-dasharray:none;stroke-opacity:1"
       id="rect6388-1-6"
       width="18.82486"
       height="0.043934077"
       x="-168.63054"
       y="-101.31039"
       transform="matrix(-0.70926551,-0.70494145,0.71329204,-0.70086694,0,0)" />
    <rect
       style="fill:#ffffff;fill-opacity:1;stroke:#000000;stroke-width:0.352247;stroke-miterlimit:10;stroke-dasharray:none;stroke-opacity:1"
       id="rect6388-1-6-8"
       width="18.82486"
       height="0.043934077"
       x="-176.49129"
       y="-109.09127"
       transform="matrix(-0.70926551,-0.70494145,0.71329204,-0.70086694,0,0)" />
    <rect
       style="fill:#ffffff;fill-opacity:1;stroke:#000000;stroke-width:0.352247;stroke-miterlimit:10;stroke-dasharray:none;stroke-opacity:1"
       id="rect6388-1-6-1"
       width="18.82486"
       height="0.043934077"
       x="-184.41858"
       y="-117.11435"
       transform="matrix(-0.70926551,-0.70494145,0.71329204,-0.70086694,0,0)" />
    <rect
       style="fill:#ffffff;fill-opacity:1;stroke:#000000;stroke-width:0.352247;stroke-miterlimit:10;stroke-dasharray:none;stroke-opacity:1"
       id="rect6388-1-6-5"
       width="18.82486"
       height="0.043934077"
       x="-193.19849"
       y="-125.54094"
       transform="matrix(-0.70926551,-0.70494145,0.71329204,-0.70086694,0,0)" />
    <rect
       style="fill:#ffffff;fill-opacity:1;stroke:#000000;stroke-width:0.352247;stroke-miterlimit:10;stroke-dasharray:none;stroke-opacity:1"
       id="rect6388-1-6-7"
       width="18.82486"
       height="0.043934077"
       x="-200.97278"
       y="-132.90482"
       transform="matrix(-0.70926551,-0.70494145,0.71329204,-0.70086694,0,0)" />
    <rect
       style="fill:#ffffff;fill-opacity:1;stroke:#000000;stroke-width:0.352247;stroke-miterlimit:10;stroke-dasharray:none;stroke-opacity:1"
       id="rect6388-1-6-7-2"
       width="18.82486"
       height="0.043934073"
       x="-207.22963"
       y="-140.68515"
       transform="matrix(-0.70926551,-0.70494145,0.71329204,-0.70086694,0,0)" />
    <rect
       style="fill:#ffffff;fill-opacity:1;stroke:#000000;stroke-width:0.352247;stroke-miterlimit:10;stroke-dasharray:none;stroke-opacity:1"
       id="rect6388-1-6-7-23"
       width="18.82486"
       height="0.043934073"
       x="-219.79764"
       y="-132.90482"
       transform="matrix(-0.70926551,-0.70494145,0.71329204,-0.70086694,0,0)" />
    <rect
       style="fill:#ffffff;fill-opacity:1;stroke:#000000;stroke-width:0.352247;stroke-miterlimit:10;stroke-dasharray:none;stroke-opacity:1"
       id="rect6388-1-6-7-5"
       width="18.82486"
       height="0.043934073"
       x="-228.73706"
       y="-124.58047"
       transform="matrix(-0.70926551,-0.70494145,0.71329204,-0.70086694,0,0)" />
    <rect
       style="fill:#ffffff;fill-opacity:1;stroke:#000000;stroke-width:0.352247;stroke-miterlimit:10;stroke-dasharray:none;stroke-opacity:1"
       id="rect6388-1-6-7-6"
       width="18.82486"
       height="0.043934073"
       x="-236.48743"
       y="-116.91989"
       transform="matrix(-0.70926551,-0.70494145,0.71329204,-0.70086694,0,0)" />
    <rect
       style="fill:#ffffff;fill-opacity:1;stroke:#000000;stroke-width:0.352247;stroke-miterlimit:10;stroke-dasharray:none;stroke-opacity:1"
       id="rect6388-1-6-7-0"
       width="18.82486"
       height="0.043934073"
       x="-243.77063"
       y="-109.32468"
       transform="matrix(-0.70926551,-0.70494145,0.71329204,-0.70086694,0,0)" />
    <rect
       style="fill:#ffffff;fill-opacity:1;stroke:#000000;stroke-width:0.352247;stroke-miterlimit:10;stroke-dasharray:none;stroke-opacity:1"
       id="rect6388-1-6-7-7"
       width="18.82486"
       height="0.043934073"
       x="-251.31644"
       y="-101.19574"
       transform="matrix(-0.70926551,-0.70494145,0.71329204,-0.70086694,0,0)" />
    <rect
       style="fill:#ffffff;fill-opacity:1;stroke:#000000;stroke-width:0.352247;stroke-miterlimit:10;stroke-dasharray:none;stroke-opacity:1"
       id="rect6388-1-6-7-5-0"
       width="18.82486"
       height="0.043934073"
       x="-259.82907"
       y="-92.835831"
       transform="matrix(-0.70926551,-0.70494145,0.71329204,-0.70086694,0,0)" />
    <rect
       style="fill:#ffffff;fill-opacity:1;stroke:#000000;stroke-width:0.352247;stroke-miterlimit:10;stroke-dasharray:none;stroke-opacity:1"
       id="rect6388-1-6-7-6-9"
       width="18.82486"
       height="0.043934073"
       x="-267.97684"
       y="-84.775536"
       transform="matrix(-0.70926551,-0.70494145,0.71329204,-0.70086694,0,0)" />
    <rect
       style="fill:#ffffff;fill-opacity:1;stroke:#000000;stroke-width:0.352247;stroke-miterlimit:10;stroke-dasharray:none;stroke-opacity:1"
       id="rect6388-1-6-7-0-9"
       width="18.82486"
       height="0.043934073"
       x="-275.66095"
       y="-77.181557"
       transform="matrix(-0.70926551,-0.70494145,0.71329204,-0.70086694,0,0)" />
    <rect
       style="fill:#ffffff;fill-opacity:1;stroke:#000000;stroke-width:0.352247;stroke-miterlimit:10;stroke-dasharray:none;stroke-opacity:1"
       id="rect6388-1-6-7-7-3"
       width="18.82486"
       height="0.043934073"
       x="-282.93832"
       y="-68.918152"
       transform="matrix(-0.70926551,-0.70494145,0.71329204,-0.70086694,0,0)" />
    <rect
       style="fill:#ffffff;fill-opacity:1;stroke:#000000;stroke-width:0.352247;stroke-miterlimit:10;stroke-dasharray:none;stroke-opacity:1"
       id="rect6388-1-6-7-2-8"
       width="18.82486"
       height="0.043934073"
       x="-216.32173"
       y="-140.68648"
       transform="matrix(-0.70926551,-0.70494145,0.71329204,-0.70086694,0,0)" />
    <rect
       style="fill:#ffffff;fill-opacity:1;stroke:#fcffff;stroke-width:1.02115273;stroke-miterlimit:10;stroke-dasharray:none;stroke-opacity:1"
       id="rect6575"
       width="139.73553"
       height="8.6723003"
       x="32.422035"
       y="243.9994" />
    <rect
       style="fill:#ffffff;fill-opacity:1;stroke:#fcffff;stroke-width:1;stroke-miterlimit:10;stroke-dasharray:none;stroke-opacity:1"
       id="rect6577"
       width="0.28348213"
       height="1.8898809"
       x="154.0253"
       y="253.34375" />
    <path
       style="fill:none;stroke:#000000;stroke-width:0.9;stroke-linecap:butt;stroke-linejoin:miter;stroke-miterlimit:4;stroke-dasharray:none;stroke-opacity:1"
       d="m 97.018836,219.7591 -24.321526,0.40091 -2.593023,8.55262 -2.821149,-14.30702 -3.640566,14.0789 -3.21534,-14.00062 -3.231555,13.96147 -3.159987,-13.58349 -2.185403,6.63449 -4.290031,0.10262"
       id="path6579"
       inkscape:connector-curvature="0"
       sodipodi:nodetypes="cccccccccc" />
    <rect
       style="fill:#ffffff;fill-opacity:1;stroke:#fcffff;stroke-width:0.89999998;stroke-miterlimit:4;stroke-dasharray:none;stroke-opacity:1"
       id="rect6581"
       width="22.111607"
       height="1.8898809"
       x="51.59375"
       y="212.14435" />
    <path
       style="fill:none;stroke:#000000;stroke-width:0.5;stroke-linecap:butt;stroke-linejoin:miter;stroke-miterlimit:4;stroke-dasharray:none;stroke-opacity:1;marker-start:url(#Arrow2Mstart);marker-end:url(#Arrow2Mend)"
       d="m 103.9663,198.2059 c -16.968772,0.31018 -18.779921,0.35128 -18.779921,0.35128"
       id="path6583"
       inkscape:connector-curvature="0"
       sodipodi:nodetypes="cc" />
    <path
       style="fill:none;stroke:#000000;stroke-width:0.5;stroke-linecap:butt;stroke-linejoin:miter;stroke-miterlimit:4;stroke-dasharray:none;stroke-opacity:1;marker-start:url(#marker7082);marker-end:url(#marker7198)"
       d="m 115.01548,209.20079 c 6.42559,5.00818 6.75789,12.67315 2.05496,16.55839 l -1.86123,1.53762"
       id="path7014"
       inkscape:connector-curvature="0"
       sodipodi:nodetypes="csc" />
    <circle
       style="fill:#ffffff;fill-opacity:1;stroke:#fcffff;stroke-width:0.5;stroke-miterlimit:4;stroke-dasharray:none;stroke-opacity:1"
       id="path12306"
       cx="96.016579"
       cy="216.81914"
       r="1.0022607" />
    <circle
       style="fill:#000000;fill-opacity:1;stroke:#fcffff;stroke-width:0.64700001;stroke-miterlimit:4;stroke-dasharray:none;stroke-opacity:0"
       id="path12322"
       cx="96.444466"
       cy="219.75504"
       r="1.7303588" />
    <path
       style="fill:none;stroke:#000000;stroke-width:0.26499999;stroke-linecap:butt;stroke-linejoin:miter;stroke-miterlimit:4;stroke-dasharray:none;stroke-opacity:1;marker-end:url(#marker12334)"
       d="m 125.48809,188.04836 c 0,15.96949 0,15.96949 0,15.96949"
       id="path12324"
       inkscape:connector-curvature="0" />
    <path
       style="fill:none;stroke:#000000;stroke-width:0.26458332px;stroke-linecap:butt;stroke-linejoin:miter;stroke-opacity:1;marker-end:url(#marker12430)"
       d="m 126.43303,229.15327 c -23.05654,4.44122 -23.05654,4.44122 -23.05654,4.44122"
       id="path12420"
       inkscape:connector-curvature="0" />
    <text
       xml:space="preserve"
       style="font-style:normal;font-weight:normal;font-size:5.3409791px;line-height:1.25;font-family:sans-serif;letter-spacing:0px;word-spacing:0px;fill:#000000;fill-opacity:1;stroke:none;stroke-width:0.13352446"
       x="127.625"
       y="226.0808"
       id="text12614"><tspan
         sodipodi:role="line"
         id="tspan12612"
         x="127.625"
         y="226.0808"
         style="line-height:1.59576535px;stroke-width:0.13352446">rolling</tspan><tspan
         sodipodi:role="line"
         x="127.625"
         y="232.75702"
         style="line-height:1.59576535px;stroke-width:0.13352446"
         id="tspan12616">contact</tspan></text>
    <g
       id="page1-9"
       transform="matrix(2.9635179,0,0,2.9635179,-38.893777,3.5578282)">
      <path
         inkscape:connector-curvature="0"
         d="m 57.482406,65.351707 c -0.01265,0.05061 -0.01898,0.06326 -0.0601,0.11071 -0.129689,0.167646 -0.26254,0.227746 -0.360598,0.227746 -0.104383,0 -0.202441,-0.08224 -0.202441,-0.300498 0,-0.167647 0.09489,-0.521918 0.164483,-0.664259 0.09173,-0.177136 0.234073,-0.303662 0.366925,-0.303662 0.208767,0 0.249887,0.259378 0.249887,0.278357 l -0.0095,0.04428 z m 0.196114,-0.784458 c -0.04112,-0.09173 -0.129688,-0.208767 -0.287845,-0.208767 -0.344782,0 -0.737011,0.43335 -0.737011,0.904657 0,0.328966 0.199277,0.490287 0.401718,0.490287 0.167647,0 0.316314,-0.132852 0.373251,-0.196115 l -0.06959,0.284683 c -0.04428,0.173972 -0.06326,0.25305 -0.177135,0.36376 -0.129689,0.129689 -0.249888,0.129689 -0.319477,0.129689 -0.09489,0 -0.173973,-0.0063 -0.253051,-0.03163 0.10122,-0.02847 0.126525,-0.117037 0.126525,-0.151831 0,-0.05061 -0.03796,-0.10122 -0.107546,-0.10122 -0.07592,0 -0.158157,0.06326 -0.158157,0.167646 0,0.129689 0.129688,0.180299 0.398555,0.180299 0.408045,0 0.619975,-0.262541 0.661096,-0.43335 l 0.351108,-1.417086 c 0.0095,-0.03796 0.0095,-0.04428 0.0095,-0.05061 0,-0.04428 -0.03479,-0.07908 -0.08224,-0.07908 -0.07591,0 -0.120199,0.06326 -0.129689,0.148667 z"
         id="use5-3"
         style="stroke-width:0.26458332" />
    </g>
  </g>
</svg>
