<?xml version="1.0" encoding="UTF-8" standalone="no"?>
<svg
   xmlns:dc="http://purl.org/dc/elements/1.1/"
   xmlns:cc="http://creativecommons.org/ns#"
   xmlns:rdf="http://www.w3.org/1999/02/22-rdf-syntax-ns#"
   xmlns:svg="http://www.w3.org/2000/svg"
   xmlns="http://www.w3.org/2000/svg"
   xmlns:sodipodi="http://sodipodi.sourceforge.net/DTD/sodipodi-0.dtd"
   xmlns:inkscape="http://www.inkscape.org/namespaces/inkscape"
   width="210mm"
   height="297mm"
   viewBox="0 0 210 297"
   version="1.1"
   id="svg4570"
   inkscape:version="1.0.2 (1.0.2+r75+1)"
   sodipodi:docname="figure4.svg">
  <defs
     id="defs4564">
    <marker
       inkscape:isstock="true"
       style="overflow:visible;"
       id="marker12430"
       refX="0.0"
       refY="0.0"
       orient="auto"
       inkscape:stockid="Arrow2Mend">
      <path
         transform="scale(0.6) rotate(180) translate(0,0)"
         d="M 8.7185878,4.0337352 L -2.2072895,0.016013256 L 8.7185884,-4.0017078 C 6.9730900,-1.6296469 6.9831476,1.6157441 8.7185878,4.0337352 z "
         style="fill-rule:evenodd;stroke-width:0.625;stroke-linejoin:round;stroke:#000000;stroke-opacity:1;fill:#000000;fill-opacity:1"
         id="path12428" />
    </marker>
    <marker
       inkscape:isstock="true"
       style="overflow:visible;"
       id="marker12334"
       refX="0.0"
       refY="0.0"
       orient="auto"
       inkscape:stockid="Arrow2Mend">
      <path
         transform="scale(0.6) rotate(180) translate(0,0)"
         d="M 8.7185878,4.0337352 L -2.2072895,0.016013256 L 8.7185884,-4.0017078 C 6.9730900,-1.6296469 6.9831476,1.6157441 8.7185878,4.0337352 z "
         style="fill-rule:evenodd;stroke-width:0.625;stroke-linejoin:round;stroke:#000000;stroke-opacity:1;fill:#000000;fill-opacity:1"
         id="path12332" />
    </marker>
    <marker
       inkscape:stockid="Arrow2Mend"
       orient="auto"
       refY="0.0"
       refX="0.0"
       id="marker7198"
       style="overflow:visible;"
       inkscape:isstock="true"
       inkscape:collect="always">
      <path
         id="path7196"
         style="fill-rule:evenodd;stroke-width:0.625;stroke-linejoin:round;stroke:#000000;stroke-opacity:1;fill:#000000;fill-opacity:1"
         d="M 8.7185878,4.0337352 L -2.2072895,0.016013256 L 8.7185884,-4.0017078 C 6.9730900,-1.6296469 6.9831476,1.6157441 8.7185878,4.0337352 z "
         transform="scale(0.6) rotate(180) translate(0,0)" />
    </marker>
    <marker
       inkscape:isstock="true"
       style="overflow:visible;"
       id="marker7146"
       refX="0.0"
       refY="0.0"
       orient="auto"
       inkscape:stockid="Arrow2Mend">
      <path
         transform="scale(0.6) rotate(180) translate(0,0)"
         d="M 8.7185878,4.0337352 L -2.2072895,0.016013256 L 8.7185884,-4.0017078 C 6.9730900,-1.6296469 6.9831476,1.6157441 8.7185878,4.0337352 z "
         style="fill-rule:evenodd;stroke-width:0.625;stroke-linejoin:round;stroke:#000000;stroke-opacity:1;fill:#000000;fill-opacity:1"
         id="path7144" />
    </marker>
    <marker
       inkscape:isstock="true"
       style="overflow:visible"
       id="marker7082"
       refX="0.0"
       refY="0.0"
       orient="auto"
       inkscape:stockid="Arrow2Mstart">
      <path
         transform="scale(0.6) translate(0,0)"
         d="M 8.7185878,4.0337352 L -2.2072895,0.016013256 L 8.7185884,-4.0017078 C 6.9730900,-1.6296469 6.9831476,1.6157441 8.7185878,4.0337352 z "
         style="fill-rule:evenodd;stroke-width:0.625;stroke-linejoin:round;stroke:#000000;stroke-opacity:1;fill:#000000;fill-opacity:1"
         id="path7080" />
    </marker>
    <marker
       inkscape:isstock="true"
       style="overflow:visible;"
       id="marker7024"
       refX="0.0"
       refY="0.0"
       orient="auto"
       inkscape:stockid="Arrow2Mend">
      <path
         transform="scale(0.6) rotate(180) translate(0,0)"
         d="M 8.7185878,4.0337352 L -2.2072895,0.016013256 L 8.7185884,-4.0017078 C 6.9730900,-1.6296469 6.9831476,1.6157441 8.7185878,4.0337352 z "
         style="fill-rule:evenodd;stroke-width:0.625;stroke-linejoin:round;stroke:#000000;stroke-opacity:1;fill:#000000;fill-opacity:1"
         id="path7022" />
    </marker>
    <marker
       inkscape:stockid="Arrow2Mend"
       orient="auto"
       refY="0.0"
       refX="0.0"
       id="Arrow2Mend"
       style="overflow:visible;"
       inkscape:isstock="true"
       inkscape:collect="always">
      <path
         id="path5967"
         style="fill-rule:evenodd;stroke-width:0.625;stroke-linejoin:round;stroke:#000000;stroke-opacity:1;fill:#000000;fill-opacity:1"
         d="M 8.7185878,4.0337352 L -2.2072895,0.016013256 L 8.7185884,-4.0017078 C 6.9730900,-1.6296469 6.9831476,1.6157441 8.7185878,4.0337352 z "
         transform="scale(0.6) rotate(180) translate(0,0)" />
    </marker>
    <marker
       inkscape:stockid="Arrow2Mstart"
       orient="auto"
       refY="0.0"
       refX="0.0"
       id="Arrow2Mstart"
       style="overflow:visible"
       inkscape:isstock="true"
       inkscape:collect="always">
      <path
         id="path5964"
         style="fill-rule:evenodd;stroke-width:0.625;stroke-linejoin:round;stroke:#000000;stroke-opacity:1;fill:#000000;fill-opacity:1"
         d="M 8.7185878,4.0337352 L -2.2072895,0.016013256 L 8.7185884,-4.0017078 C 6.9730900,-1.6296469 6.9831476,1.6157441 8.7185878,4.0337352 z "
         transform="scale(0.6) translate(0,0)" />
    </marker>
    <clipPath
       clipPathUnits="userSpaceOnUse"
       id="clipPath1612">
      <rect
         style="fill:none;stroke:#000000;stroke-width:0.499996;stroke-linecap:round;stroke-linejoin:round;stroke-miterlimit:4;stroke-dasharray:none;stroke-opacity:1"
         id="rect1614"
         width="114.26307"
         height="60.723534"
         x="32.735012"
         y="29.59079" />
    </clipPath>
    <clipPath
       clipPathUnits="userSpaceOnUse"
       id="clipPath2336">
      <rect
         style="fill:none;stroke:#000000;stroke-width:0.499996;stroke-linecap:round;stroke-linejoin:round;stroke-miterlimit:4;stroke-dasharray:none;stroke-opacity:1"
         id="rect2338"
         width="114.10987"
         height="60.41711"
         x="32.748604"
         y="29.453373" />
    </clipPath>
  </defs>
  <sodipodi:namedview
     id="base"
     pagecolor="#ffffff"
     bordercolor="#666666"
     borderopacity="1.0"
     inkscape:pageopacity="0.0"
     inkscape:pageshadow="2"
     inkscape:zoom="1.4"
     inkscape:cx="332.6599"
     inkscape:cy="249.72231"
     inkscape:document-units="mm"
     inkscape:current-layer="layer1"
     showgrid="false"
     inkscape:window-width="3373"
     inkscape:window-height="1385"
     inkscape:window-x="67"
     inkscape:window-y="27"
     inkscape:window-maximized="1"
     inkscape:document-rotation="0"
     inkscape:snap-global="false" />
  <metadata
     id="metadata4567">
    <rdf:RDF>
      <cc:Work
         rdf:about="">
        <dc:format>image/svg+xml</dc:format>
        <dc:type
           rdf:resource="http://purl.org/dc/dcmitype/StillImage" />
        <dc:title />
      </cc:Work>
    </rdf:RDF>
  </metadata>
  <g
     inkscape:label="Layer 1"
     inkscape:groupmode="layer"
     id="layer1">
    <g
       id="g2046"
       clip-path="url(#clipPath2336)">
      <circle
         style="fill:#ffffff;fill-opacity:1;stroke:#000000;stroke-width:1;stroke-miterlimit:10;stroke-dasharray:none;stroke-opacity:1"
         id="path6386"
         cx="91.634506"
         cy="64.859299"
         r="15.308036" />
      <rect
         style="fill:#ffffff;fill-opacity:1;stroke:#000000;stroke-width:1;stroke-miterlimit:10;stroke-dasharray:none;stroke-opacity:1"
         id="rect6388"
         width="99.758347"
         height="0.06681738"
         x="43.091827"
         y="80.826569" />
      <rect
         style="fill:#ffffff;fill-opacity:1;stroke:#000000;stroke-width:0.759344;stroke-miterlimit:10;stroke-dasharray:none;stroke-opacity:1"
         id="rect6388-1"
         width="57.526226"
         height="0.066811256"
         x="-80.134537"
         y="42.909885"
         transform="matrix(-0.00152035,-0.99999884,0.99984406,0.01765937,0,0)" />
      <rect
         style="fill:#ffffff;fill-opacity:1;stroke:#000000;stroke-width:0.352247;stroke-miterlimit:10;stroke-dasharray:none;stroke-opacity:1"
         id="rect6388-1-6"
         width="18.82486"
         height="0.043934077"
         x="-55.518517"
         y="4.5046725"
         transform="matrix(-0.70926551,-0.70494145,0.71329204,-0.70086694,0,0)" />
      <rect
         style="fill:#ffffff;fill-opacity:1;stroke:#000000;stroke-width:0.352247;stroke-miterlimit:10;stroke-dasharray:none;stroke-opacity:1"
         id="rect6388-1-6-8"
         width="18.82486"
         height="0.043934077"
         x="-63.379265"
         y="-3.2762115"
         transform="matrix(-0.70926551,-0.70494145,0.71329204,-0.70086694,0,0)" />
      <rect
         style="fill:#ffffff;fill-opacity:1;stroke:#000000;stroke-width:0.352247;stroke-miterlimit:10;stroke-dasharray:none;stroke-opacity:1"
         id="rect6388-1-6-1"
         width="18.82486"
         height="0.043934077"
         x="-71.306557"
         y="-11.299291"
         transform="matrix(-0.70926551,-0.70494145,0.71329204,-0.70086694,0,0)" />
      <rect
         style="fill:#ffffff;fill-opacity:1;stroke:#000000;stroke-width:0.352247;stroke-miterlimit:10;stroke-dasharray:none;stroke-opacity:1"
         id="rect6388-1-6-5"
         width="18.82486"
         height="0.043934077"
         x="-80.086464"
         y="-19.72588"
         transform="matrix(-0.70926551,-0.70494145,0.71329204,-0.70086694,0,0)" />
      <rect
         style="fill:#ffffff;fill-opacity:1;stroke:#000000;stroke-width:0.352247;stroke-miterlimit:10;stroke-dasharray:none;stroke-opacity:1"
         id="rect6388-1-6-7"
         width="18.82486"
         height="0.043934077"
         x="-87.860756"
         y="-27.089756"
         transform="matrix(-0.70926551,-0.70494145,0.71329204,-0.70086694,0,0)" />
      <rect
         style="fill:#ffffff;fill-opacity:1;stroke:#000000;stroke-width:0.352247;stroke-miterlimit:10;stroke-dasharray:none;stroke-opacity:1"
         id="rect6388-1-6-7-2"
         width="18.82486"
         height="0.043934073"
         x="-94.117607"
         y="-34.87009"
         transform="matrix(-0.70926551,-0.70494145,0.71329204,-0.70086694,0,0)" />
      <rect
         style="fill:#ffffff;fill-opacity:1;stroke:#000000;stroke-width:0.352247;stroke-miterlimit:10;stroke-dasharray:none;stroke-opacity:1"
         id="rect6388-1-6-7-23"
         width="18.82486"
         height="0.043934073"
         x="-106.68562"
         y="-27.089756"
         transform="matrix(-0.70926551,-0.70494145,0.71329204,-0.70086694,0,0)" />
      <rect
         style="fill:#ffffff;fill-opacity:1;stroke:#000000;stroke-width:0.352247;stroke-miterlimit:10;stroke-dasharray:none;stroke-opacity:1"
         id="rect6388-1-6-7-5"
         width="18.82486"
         height="0.043934073"
         x="-115.62504"
         y="-18.765408"
         transform="matrix(-0.70926551,-0.70494145,0.71329204,-0.70086694,0,0)" />
      <rect
         style="fill:#ffffff;fill-opacity:1;stroke:#000000;stroke-width:0.352247;stroke-miterlimit:10;stroke-dasharray:none;stroke-opacity:1"
         id="rect6388-1-6-7-6"
         width="18.82486"
         height="0.043934073"
         x="-123.3754"
         y="-11.104833"
         transform="matrix(-0.70926551,-0.70494145,0.71329204,-0.70086694,0,0)" />
      <rect
         style="fill:#ffffff;fill-opacity:1;stroke:#000000;stroke-width:0.352247;stroke-miterlimit:10;stroke-dasharray:none;stroke-opacity:1"
         id="rect6388-1-6-7-0"
         width="18.82486"
         height="0.043934073"
         x="-130.65862"
         y="-3.5096176"
         transform="matrix(-0.70926551,-0.70494145,0.71329204,-0.70086694,0,0)" />
      <rect
         style="fill:#ffffff;fill-opacity:1;stroke:#000000;stroke-width:0.352247;stroke-miterlimit:10;stroke-dasharray:none;stroke-opacity:1"
         id="rect6388-1-6-7-7"
         width="18.82486"
         height="0.043934073"
         x="-138.20442"
         y="4.6193194"
         transform="matrix(-0.70926551,-0.70494145,0.71329204,-0.70086694,0,0)" />
      <rect
         style="fill:#ffffff;fill-opacity:1;stroke:#000000;stroke-width:0.352247;stroke-miterlimit:10;stroke-dasharray:none;stroke-opacity:1"
         id="rect6388-1-6-7-5-0"
         width="18.82486"
         height="0.043934073"
         x="-146.71706"
         y="12.979228"
         transform="matrix(-0.70926551,-0.70494145,0.71329204,-0.70086694,0,0)" />
      <rect
         style="fill:#ffffff;fill-opacity:1;stroke:#000000;stroke-width:0.352247;stroke-miterlimit:10;stroke-dasharray:none;stroke-opacity:1"
         id="rect6388-1-6-7-6-9"
         width="18.82486"
         height="0.043934073"
         x="-154.86482"
         y="21.039524"
         transform="matrix(-0.70926551,-0.70494145,0.71329204,-0.70086694,0,0)" />
      <rect
         style="fill:#ffffff;fill-opacity:1;stroke:#000000;stroke-width:0.352247;stroke-miterlimit:10;stroke-dasharray:none;stroke-opacity:1"
         id="rect6388-1-6-7-0-9"
         width="18.82486"
         height="0.043934073"
         x="-162.54893"
         y="28.633503"
         transform="matrix(-0.70926551,-0.70494145,0.71329204,-0.70086694,0,0)" />
      <rect
         style="fill:#ffffff;fill-opacity:1;stroke:#000000;stroke-width:0.352247;stroke-miterlimit:10;stroke-dasharray:none;stroke-opacity:1"
         id="rect6388-1-6-7-7-3"
         width="18.82486"
         height="0.043934073"
         x="-169.82631"
         y="36.896908"
         transform="matrix(-0.70926551,-0.70494145,0.71329204,-0.70086694,0,0)" />
      <rect
         style="fill:#ffffff;fill-opacity:1;stroke:#000000;stroke-width:0.352247;stroke-miterlimit:10;stroke-dasharray:none;stroke-opacity:1"
         id="rect6388-1-6-7-2-8"
         width="18.82486"
         height="0.043934073"
         x="-103.20971"
         y="-34.871418"
         transform="matrix(-0.70926551,-0.70494145,0.71329204,-0.70086694,0,0)" />
      <path
         style="fill:none;stroke:#000000;stroke-width:0.9;stroke-linecap:butt;stroke-linejoin:miter;stroke-miterlimit:4;stroke-dasharray:none;stroke-opacity:1"
         d="M 92.269419,65.85947 67.947893,66.26038 65.35487,74.813 62.533721,60.50598 58.893155,74.58488 55.677815,60.58426 52.44626,74.54573 49.286273,60.96224 47.10087,67.59673 42.810839,67.69935"
         id="path6579"
         inkscape:connector-curvature="0"
         sodipodi:nodetypes="cccccccccc" />
      <rect
         style="fill:#ffffff;fill-opacity:1;stroke:#fcffff;stroke-width:0.9;stroke-miterlimit:4;stroke-dasharray:none;stroke-opacity:1"
         id="rect6581"
         width="22.111607"
         height="1.8898809"
         x="46.844334"
         y="58.244717" />
      <path
         style="fill:none;stroke:#000000;stroke-width:0.5;stroke-linecap:butt;stroke-linejoin:miter;stroke-miterlimit:4;stroke-dasharray:none;stroke-opacity:1;marker-start:url(#Arrow2Mstart);marker-end:url(#Arrow2Mend)"
         d="M 99.216883,44.30627 C 82.248111,44.61645 80.436962,44.65755 80.436962,44.65755"
         id="path6583"
         inkscape:connector-curvature="0"
         sodipodi:nodetypes="cc" />
      <path
         style="fill:none;stroke:#000000;stroke-width:0.5;stroke-linecap:butt;stroke-linejoin:miter;stroke-miterlimit:4;stroke-dasharray:none;stroke-opacity:1;marker-start:url(#marker7082);marker-end:url(#marker7198)"
         d="m 110.26606,55.30116 c 6.42559,5.00818 6.75789,12.67315 2.05496,16.55839 l -1.86123,1.53762"
         id="path7014"
         inkscape:connector-curvature="0"
         sodipodi:nodetypes="csc" />
      <circle
         style="fill:#ffffff;fill-opacity:1;stroke:#fcffff;stroke-width:0.5;stroke-miterlimit:4;stroke-dasharray:none;stroke-opacity:1"
         id="path12306"
         cx="91.267159"
         cy="62.919506"
         r="1.0022607" />
      <circle
         style="fill:#000000;fill-opacity:1;stroke:#fcffff;stroke-width:0.647;stroke-miterlimit:4;stroke-dasharray:none;stroke-opacity:0"
         id="path12322"
         cx="91.695045"
         cy="65.855408"
         r="1.7303588" />
      <path
         style="fill:none;stroke:#000000;stroke-width:0.5;stroke-linecap:round;stroke-linejoin:miter;stroke-miterlimit:4;stroke-dasharray:none;stroke-opacity:1;marker-end:url(#marker12334)"
         d="m 120.73867,34.14873 c 0,15.96949 0,15.96949 0,15.96949"
         id="path12324"
         inkscape:connector-curvature="0" />
      <path
         style="fill:none;stroke:#000000;stroke-width:0.5;stroke-linecap:round;stroke-linejoin:miter;stroke-miterlimit:4;stroke-dasharray:none;stroke-opacity:1;marker-end:url(#marker12430)"
         d="m 123.15131,74.141959 -20.71937,4.521242"
         id="path12420"
         inkscape:connector-curvature="0"
         sodipodi:nodetypes="cc" />
      <text
         xml:space="preserve"
         style="font-style:normal;font-weight:normal;font-size:5.34098px;line-height:1.25;font-family:sans-serif;letter-spacing:0px;word-spacing:0px;fill:#000000;fill-opacity:1;stroke:none;stroke-width:0.133524"
         x="123.40475"
         y="71.652"
         id="text12614"><tspan
           sodipodi:role="line"
           id="tspan12612"
           x="123.40475"
           y="71.652"
           style="line-height:1.59577px;stroke-width:0.133524">rolling</tspan><tspan
           sodipodi:role="line"
           x="123.40475"
           y="78.328224"
           style="line-height:1.59577px;stroke-width:0.133524"
           id="tspan12616">contact</tspan></text>
      <g
         id="page1-9"
         transform="matrix(2.2940382,0,0,2.2940382,-5.8068491,-108.84704)"
         style="stroke-width:1.29183">
        <path
           inkscape:connector-curvature="0"
           d="m 57.482406,65.351707 c -0.01265,0.05061 -0.01898,0.06326 -0.0601,0.11071 -0.129689,0.167646 -0.26254,0.227746 -0.360598,0.227746 -0.104383,0 -0.202441,-0.08224 -0.202441,-0.300498 0,-0.167647 0.09489,-0.521918 0.164483,-0.664259 0.09173,-0.177136 0.234073,-0.303662 0.366925,-0.303662 0.208767,0 0.249887,0.259378 0.249887,0.278357 l -0.0095,0.04428 z m 0.196114,-0.784458 c -0.04112,-0.09173 -0.129688,-0.208767 -0.287845,-0.208767 -0.344782,0 -0.737011,0.43335 -0.737011,0.904657 0,0.328966 0.199277,0.490287 0.401718,0.490287 0.167647,0 0.316314,-0.132852 0.373251,-0.196115 l -0.06959,0.284683 c -0.04428,0.173972 -0.06326,0.25305 -0.177135,0.36376 -0.129689,0.129689 -0.249888,0.129689 -0.319477,0.129689 -0.09489,0 -0.173973,-0.0063 -0.253051,-0.03163 0.10122,-0.02847 0.126525,-0.117037 0.126525,-0.151831 0,-0.05061 -0.03796,-0.10122 -0.107546,-0.10122 -0.07592,0 -0.158157,0.06326 -0.158157,0.167646 0,0.129689 0.129688,0.180299 0.398555,0.180299 0.408045,0 0.619975,-0.262541 0.661096,-0.43335 l 0.351108,-1.417086 c 0.0095,-0.03796 0.0095,-0.04428 0.0095,-0.05061 0,-0.04428 -0.03479,-0.07908 -0.08224,-0.07908 -0.07591,0 -0.120199,0.06326 -0.129689,0.148667 z"
           id="use5-3"
           style="stroke-width:0.341797" />
      </g>
      <rect
         style="fill:#ffffff;fill-opacity:1;stroke:#fcffff;stroke-width:1.02115;stroke-miterlimit:10;stroke-dasharray:none;stroke-opacity:1"
         id="rect6575"
         width="115.89773"
         height="7.2320852"
         x="30.989046"
         y="90.628944" />
      <rect
         style="fill:#ffffff;fill-opacity:1;stroke:#fcffff;stroke-width:1.02115;stroke-miterlimit:10;stroke-dasharray:none;stroke-opacity:1"
         id="rect6575-3"
         width="67.925873"
         height="3.8140235"
         x="21.908066"
         y="-31.212927"
         transform="rotate(90)" />
    </g>
  </g>
</svg>
